<svg width="24" height="25" viewBox="0 0 24 25" fill="none" xmlns="http://www.w3.org/2000/svg">
<g id="arrow_drop_down">
<mask id="mask0_941_143" style="mask-type:alpha" maskUnits="userSpaceOnUse" x="0" y="0" width="24" height="25">
<rect id="Bounding box" y="0.5" width="24" height="24" fill="#D9D9D9"/>
</mask>
<g mask="url(#mask0_941_143)">
<path id="arrow_drop_down_2" d="M11.475 14.975L7.85 11.35C7.8 11.3 7.7625 11.2458 7.7375 11.1875C7.7125 11.1292 7.7 11.0667 7.7 11C7.7 10.8667 7.74583 10.75 7.8375 10.65C7.92916 10.55 8.05 10.5 8.2 10.5H15.8C15.95 10.5 16.0708 10.55 16.1625 10.65C16.2542 10.75 16.3 10.8667 16.3 11C16.3 11.0333 16.25 11.15 16.15 11.35L12.525 14.975C12.4417 15.0583 12.3583 15.1167 12.275 15.15C12.1917 15.1833 12.1 15.2 12 15.2C11.9 15.2 11.8083 15.1833 11.725 15.15C11.6417 15.1167 11.5583 15.0583 11.475 14.975Z" fill="#141313"/>
</g>
</g>
</svg>
