<svg width="24" height="24" viewBox="0 0 24 24" fill="none" xmlns="http://www.w3.org/2000/svg">
<g id="arrow_right_alt">
<mask id="mask0_436_1153" style="mask-type:alpha" maskUnits="userSpaceOnUse" x="0" y="0" width="24" height="24">
<rect id="Bounding box" width="24" height="24" fill="#CE0009"/>
</mask>
<g mask="url(#mask0_436_1153)">
<path id="arrow_right_alt_2" d="M17.0731 12.5H5.5C5.35768 12.5 5.23878 12.4523 5.14328 12.3568C5.04776 12.2613 5 12.1423 5 12C5 11.8577 5.04776 11.7388 5.14328 11.6433C5.23878 11.5478 5.35768 11.5 5.5 11.5H17.0731L13.3385 7.7654C13.241 7.66797 13.1901 7.55323 13.1856 7.42118C13.1811 7.28913 13.2321 7.16798 13.3385 7.05773C13.4487 6.94746 13.5676 6.89137 13.6952 6.88945C13.8228 6.88752 13.9417 6.94169 14.0519 7.05195L18.4346 11.4347C18.5218 11.5218 18.583 11.6109 18.6183 11.702C18.6535 11.793 18.6712 11.8923 18.6712 12C18.6712 12.1077 18.6535 12.2071 18.6183 12.2981C18.583 12.3891 18.5218 12.4782 18.4346 12.5654L14.0519 16.9481C13.9545 17.0455 13.8388 17.0965 13.7048 17.101C13.5708 17.1055 13.4487 17.0526 13.3385 16.9423C13.2321 16.8321 13.1779 16.7141 13.176 16.5885C13.174 16.4628 13.2282 16.3449 13.3385 16.2347L17.0731 12.5Z" fill="#CE0009"/>
</g>
</g>
</svg>
